<mxfile host="app.diagrams.net" modified="2021-08-30T02:03:39.034Z" agent="5.0 (Windows NT 10.0; Win64; x64) AppleWebKit/537.36 (KHTML, like Gecko) Chrome/92.0.4515.159 Safari/537.36" etag="91ekelXa1QxdX64RPySK" version="15.0.3" type="github">
  <diagram id="C46j4N7wlA61NLoDZI6X" name="Page-1">
    <mxGraphModel dx="1038" dy="556" grid="1" gridSize="10" guides="1" tooltips="1" connect="1" arrows="1" fold="1" page="1" pageScale="1" pageWidth="850" pageHeight="1100" math="0" shadow="0">
      <root>
        <mxCell id="0" />
        <mxCell id="1" parent="0" />
        <mxCell id="9YYCufKiKYUGbGlV2z2D-1" value="INICIO" style="ellipse;whiteSpace=wrap;html=1;" vertex="1" parent="1">
          <mxGeometry x="365" y="20" width="120" height="80" as="geometry" />
        </mxCell>
        <mxCell id="9YYCufKiKYUGbGlV2z2D-2" value="" style="endArrow=classic;html=1;exitX=0.5;exitY=1;exitDx=0;exitDy=0;entryX=0.5;entryY=0;entryDx=0;entryDy=0;" edge="1" parent="1" source="9YYCufKiKYUGbGlV2z2D-1" target="9YYCufKiKYUGbGlV2z2D-3">
          <mxGeometry width="50" height="50" relative="1" as="geometry">
            <mxPoint x="400" y="310" as="sourcePoint" />
            <mxPoint x="425" y="170" as="targetPoint" />
          </mxGeometry>
        </mxCell>
        <mxCell id="9YYCufKiKYUGbGlV2z2D-3" value="Entradas: a, b" style="shape=parallelogram;perimeter=parallelogramPerimeter;whiteSpace=wrap;html=1;fixedSize=1;" vertex="1" parent="1">
          <mxGeometry x="365" y="160" width="120" height="60" as="geometry" />
        </mxCell>
        <mxCell id="9YYCufKiKYUGbGlV2z2D-5" value="" style="endArrow=classic;html=1;exitX=0.5;exitY=1;exitDx=0;exitDy=0;" edge="1" parent="1" source="9YYCufKiKYUGbGlV2z2D-3" target="9YYCufKiKYUGbGlV2z2D-6">
          <mxGeometry width="50" height="50" relative="1" as="geometry">
            <mxPoint x="400" y="310" as="sourcePoint" />
            <mxPoint x="425" y="270" as="targetPoint" />
          </mxGeometry>
        </mxCell>
        <mxCell id="9YYCufKiKYUGbGlV2z2D-6" value="&lt;span style=&quot;font-size: 10px&quot;&gt;a&lt;sup&gt;2&lt;/sup&gt;+b&lt;sup&gt;2&lt;/sup&gt;&lt;/span&gt;" style="rounded=0;whiteSpace=wrap;html=1;" vertex="1" parent="1">
          <mxGeometry x="365" y="250" width="120" height="60" as="geometry" />
        </mxCell>
        <mxCell id="9YYCufKiKYUGbGlV2z2D-7" value="" style="endArrow=classic;html=1;exitX=0.5;exitY=1;exitDx=0;exitDy=0;" edge="1" parent="1" source="9YYCufKiKYUGbGlV2z2D-6" target="9YYCufKiKYUGbGlV2z2D-8">
          <mxGeometry width="50" height="50" relative="1" as="geometry">
            <mxPoint x="400" y="310" as="sourcePoint" />
            <mxPoint x="425" y="360" as="targetPoint" />
          </mxGeometry>
        </mxCell>
        <mxCell id="9YYCufKiKYUGbGlV2z2D-8" value="a+b" style="rounded=0;whiteSpace=wrap;html=1;" vertex="1" parent="1">
          <mxGeometry x="365" y="330" width="120" height="60" as="geometry" />
        </mxCell>
        <mxCell id="9YYCufKiKYUGbGlV2z2D-9" value="h=raiz cuadrada a+b" style="rounded=0;whiteSpace=wrap;html=1;" vertex="1" parent="1">
          <mxGeometry x="365" y="430" width="120" height="60" as="geometry" />
        </mxCell>
        <mxCell id="9YYCufKiKYUGbGlV2z2D-10" value="" style="endArrow=classic;html=1;exitX=0.5;exitY=1;exitDx=0;exitDy=0;entryX=0.5;entryY=0;entryDx=0;entryDy=0;" edge="1" parent="1" source="9YYCufKiKYUGbGlV2z2D-8" target="9YYCufKiKYUGbGlV2z2D-9">
          <mxGeometry width="50" height="50" relative="1" as="geometry">
            <mxPoint x="330" y="400" as="sourcePoint" />
            <mxPoint x="450" y="260" as="targetPoint" />
          </mxGeometry>
        </mxCell>
        <mxCell id="9YYCufKiKYUGbGlV2z2D-11" value="" style="endArrow=classic;html=1;exitX=0.5;exitY=1;exitDx=0;exitDy=0;" edge="1" parent="1" source="9YYCufKiKYUGbGlV2z2D-9" target="9YYCufKiKYUGbGlV2z2D-12">
          <mxGeometry width="50" height="50" relative="1" as="geometry">
            <mxPoint x="400" y="310" as="sourcePoint" />
            <mxPoint x="425" y="520" as="targetPoint" />
          </mxGeometry>
        </mxCell>
        <mxCell id="9YYCufKiKYUGbGlV2z2D-12" value="h" style="rounded=0;whiteSpace=wrap;html=1;" vertex="1" parent="1">
          <mxGeometry x="365" y="520" width="120" height="60" as="geometry" />
        </mxCell>
        <mxCell id="9YYCufKiKYUGbGlV2z2D-13" value="" style="endArrow=classic;html=1;exitX=0.5;exitY=1;exitDx=0;exitDy=0;" edge="1" parent="1" source="9YYCufKiKYUGbGlV2z2D-12" target="9YYCufKiKYUGbGlV2z2D-14">
          <mxGeometry width="50" height="50" relative="1" as="geometry">
            <mxPoint x="400" y="410" as="sourcePoint" />
            <mxPoint x="425" y="620" as="targetPoint" />
          </mxGeometry>
        </mxCell>
        <mxCell id="9YYCufKiKYUGbGlV2z2D-14" value="FINAL" style="ellipse;whiteSpace=wrap;html=1;" vertex="1" parent="1">
          <mxGeometry x="365" y="610" width="120" height="80" as="geometry" />
        </mxCell>
      </root>
    </mxGraphModel>
  </diagram>
</mxfile>
